# xmcd CD database file
#
# Track frame offsets:
#	150
#	18027
#	35418
#	65993
#	96144
#	116052
#	137572
#	164944
#	176380
#
# Disc length: 2616 seconds
#
# Revision: 0
# Processed by: cddbd v1.5.1PL0 Copyright (c) Steve Scherf et al.
# Submitted via: CDex 1.51
#
DISCID=7a0a3609
DTITLE=山下達郎 - 山下達郎　ｓｉｎｇｓ　Ｓｕｇａｒ　Ｂａｂｅ（１９９４．０６．１９放送）
DYEAR=1900
DGENRE=Rock
TTITLE0=山下達郎　 - ＳＨＯＷ　
TTITLE1=山下達郎　 - 指切り　　
TTITLE2=山下達郎　 - ＷＩＮＤＹ　ＬＡＤＹ
TTITLE3=山下達郎　 - ＤＲＥＡＭＩＮＧ　ＤＡＹ
TTITLE4=山下達郎　 - いつも通り
TTITLE5=山下達郎　 - すてきなメロディー
TTITLE6=山下達郎　 - ふたりの夏
TTITLE7=山下達郎　 - 三ツ矢サイダー
TTITLE8=山下達郎　 - 雨は手のひらにいっぱい
EXTD=
EXTT0=
EXTT1=
EXTT2=
EXTT3=
EXTT4=
EXTT5=
EXTT6=
EXTT7=
EXTT8=
PLAYORDER=
